<svg width="32" height="32" viewBox="0 0 32 32" fill="none" xmlns="http://www.w3.org/2000/svg">
<path d="M10.6664 16.0098C10.6612 13.0647 13.0449 10.6723 15.9894 10.6672C18.9344 10.6614 21.3273 13.044 21.3331 15.9896C21.3387 18.9353 18.9551 21.3271 16.0096 21.3329C13.0651 21.3385 10.6721 18.9554 10.6664 16.0098ZM7.78467 16.0156C7.79349 20.5532 11.4788 24.2235 16.0153 24.2146C20.5523 24.2059 24.2247 20.5216 24.2159 15.9839C24.2071 11.4479 20.5212 7.77543 15.9837 7.7843C11.4471 7.79312 7.77586 11.4789 7.78467 16.0156ZM22.6037 7.4473C22.6057 8.50693 23.4672 9.36493 24.5269 9.36287C25.587 9.36074 26.445 8.49968 26.4434 7.44005C26.4414 6.38043 25.5798 5.52193 24.5197 5.52405C23.4596 5.52611 22.6016 6.38768 22.6037 7.4473ZM9.56017 29.0348C8.0003 28.9669 7.15323 28.7077 6.58873 28.4905C5.84117 28.2013 5.30773 27.8544 4.74629 27.2972C4.18592 26.7378 3.83804 26.2059 3.54617 25.4599C3.32692 24.8953 3.06304 24.0493 2.98992 22.4894C2.91061 20.803 2.89248 20.2971 2.88473 16.0249C2.87642 11.7537 2.89198 11.2477 2.96561 9.55981C3.03242 8.00099 3.29323 7.1528 3.50992 6.5888C3.79917 5.84024 4.14498 5.3078 4.70329 4.74643C5.26261 4.18499 5.79448 3.83818 6.54098 3.5463C7.10505 3.32593 7.95105 3.06411 9.51043 2.99005C11.1978 2.91017 11.7032 2.89311 15.9744 2.8848C20.2464 2.87649 20.7524 2.89155 22.4404 2.96567C23.9991 3.03355 24.8472 3.29174 25.4108 3.50999C26.1588 3.79924 26.6923 4.14405 27.2532 4.70336C27.8141 5.26274 28.1619 5.79355 28.4538 6.54168C28.6741 7.10412 28.9359 7.95118 29.0096 9.51006C29.0899 11.1974 29.1081 11.7034 29.1158 15.9746C29.1241 20.2468 29.1085 20.7528 29.0344 22.4397C28.9665 23.9995 28.7078 24.8472 28.4901 25.4122C28.2008 26.1593 27.8551 26.6927 27.2962 27.2541C26.7374 27.8134 26.2055 28.1623 25.4585 28.4542C24.8954 28.674 24.0484 28.9363 22.4901 29.0105C20.8027 29.0898 20.2972 29.108 16.0246 29.1157C11.7535 29.124 11.2481 29.108 9.56017 29.0348ZM9.37355 0.110797C7.67111 0.191172 6.50836 0.463797 5.49223 0.861985C4.44042 1.27205 3.54879 1.82155 2.66186 2.71217C1.77379 3.6033 1.22842 4.49649 0.821479 5.54936C0.427541 6.56805 0.160541 7.73137 0.085353 9.43487C0.0107279 11.1415 -0.00639708 11.6858 0.00191542 16.0306C0.0102279 20.3748 0.0293529 20.9202 0.110728 22.6273C0.192103 24.3293 0.463791 25.4915 0.861916 26.5081C1.27248 27.5599 1.82148 28.4511 2.71261 29.3386C3.60323 30.2261 4.49698 30.771 5.55036 31.1785C6.56798 31.5719 7.73174 31.84 9.43474 31.9146C11.1413 31.9898 11.6861 32.0063 16.0298 31.9981C20.3756 31.9898 20.9204 31.9706 22.627 31.8897C24.3294 31.8083 25.4911 31.5357 26.5083 31.1385C27.5601 30.727 28.4517 30.179 29.3388 29.2878C30.2257 28.3971 30.7711 27.5034 31.178 26.4501C31.572 25.4324 31.84 24.2686 31.9141 22.5667C31.9888 20.859 32.0064 20.3136 31.9981 15.9694C31.9898 11.6246 31.9701 11.0803 31.8893 9.37424C31.8084 7.67074 31.5357 6.50899 31.1381 5.49186C30.727 4.44005 30.1786 3.54936 29.2879 2.66136C28.3973 1.77436 27.5036 1.22792 26.4502 0.822048C25.4321 0.428047 24.2688 0.159547 22.5658 0.085922C20.8592 0.0102344 20.3144 -0.00632813 15.9691 0.00192188C11.6249 0.0102344 11.0801 0.0288594 9.37355 0.110797Z" fill="#424244"/>
</svg>
