<svg width="32" height="32" viewBox="0 0 32 32" fill="none" xmlns="http://www.w3.org/2000/svg">
<path fill-rule="evenodd" clip-rule="evenodd" d="M6.4 0C2.86538 0 0 2.86538 0 6.4V25.6C0 29.1346 2.86538 32 6.4 32H25.6C29.1346 32 32 29.1346 32 25.6V6.4C32 2.86538 29.1346 0 25.6 0H6.4ZM3.2 6.4C3.2 4.63269 4.63269 3.2 6.4 3.2H25.6C27.3674 3.2 28.8 4.63269 28.8 6.4V25.6C28.8 27.3674 27.3674 28.8 25.6 28.8H6.4C4.63269 28.8 3.2 27.3674 3.2 25.6V6.4ZM11.2 14.4C11.2 13.5163 10.4836 12.8 9.6 12.8C8.71635 12.8 8 13.5163 8 14.4V24C8 24.8837 8.71635 25.6 9.6 25.6C10.4836 25.6 11.2 24.8837 11.2 24V14.4ZM12 8.8C12 10.1255 10.9255 11.2 9.6 11.2C8.27451 11.2 7.2 10.1255 7.2 8.8C7.2 7.47451 8.27451 6.4 9.6 6.4C10.9255 6.4 12 7.47451 12 8.8ZM16 12.8C16.5432 12.8 17.0232 13.0707 17.3125 13.4846C18.1326 13.0403 19.0458 12.8 20 12.8C23.455 12.8 25.6 15.8813 25.6 18.5142V18.5264V18.5384V18.5506V18.5627V18.5749V18.5872V18.5994V18.6117V18.624V18.6363V18.6488V18.6611V18.6736V18.6861V18.6986V18.711V18.7235V18.7362V18.7488V18.7613V18.7741V18.7867V18.7994V18.8122V18.8248V18.8376V18.8504V18.8634V18.8762V18.8891V18.9019V18.9149V18.9278V18.9408V18.9539V18.9669V18.98V18.993V19.0061V19.0192V19.0325V19.0456V19.0587V19.072V19.0853V19.0984V19.1117V19.1251V19.1384V19.1517V19.1651V19.1786V19.1918V19.2053V19.2187V19.2322V19.2458V19.2592V19.2728V19.2862V19.2998V19.3134V19.327V19.3406V19.3542V19.3678V19.3816V19.3952V19.409V19.4227V19.4365V19.4501V19.464V19.4778V19.4915V19.5053V19.5192V19.533V19.5469V19.5606V19.5746V19.5885V19.6024V19.6163V19.6302V19.6442V19.6582V19.6722V19.6862V19.7002V19.7142V19.7282V19.7422V19.7563V19.7704V19.7845V19.7986V19.8126V19.8267V19.8408V19.8549V19.8691V19.8832V19.8974V19.9115V19.9258V19.9398V19.9541V19.9683V19.9826V19.9966V20.0109V20.0251V20.0394V20.0536V20.0678V20.0821V20.0963V20.1107V20.125V20.1392V20.1534V20.1678V20.1821V20.1963V20.2107V20.225V20.2394V20.2536V20.2678V20.2822V20.2966V20.3109V20.3253V20.3395V20.3539V20.3683V20.3826V20.397V20.4112V20.4256V20.44V20.4542V20.4686V20.483V20.4973V20.5117V20.5261V20.5405V20.5547V20.5691V20.5835V20.5978V20.6122V20.6266V20.6408V20.6552V20.6694V20.6838V20.6981V20.7125V20.7269V20.7411V20.7555V20.7698V20.784V20.7984V20.8126V20.827V20.8413V20.8555V20.8698V20.8842V20.8984V20.9126V20.9269V20.9411V20.9554V20.9696V20.9838V20.9981V21.0123V21.0266V21.0406V21.0549V21.0691V21.0832V21.0974V21.1115V21.1258V21.1398V21.1541V21.1682V21.1822V21.1963V21.2104V21.2245V21.2386V21.2526V21.2667V21.2808V21.2947V21.3088V21.3227V21.3368V21.3507V21.3646V21.3786V21.3925V21.4064V21.4203V21.4342V21.4482V21.4621V21.4758V21.4898V21.5035V21.5173V21.5312V21.545V21.5587V21.5723V21.5861V21.5998V21.6136V21.6272V21.6408V21.6546V21.6682V21.6818V21.6954V21.709V21.7224V21.736V21.7494V21.763V21.7765V21.7899V21.8034V21.8168V21.8302V21.8435V21.857V21.8702V21.8835V21.8968V21.9101V21.9234V21.9366V21.9498V21.963V21.9762V21.9893V22.0024V22.0155V22.0286V22.0416V22.0547V22.0677V22.0806V22.0936V22.1066V22.1194V22.1323V22.1451V22.1579V22.1707V22.1835V22.1963V22.209V22.2216V22.2344V22.247V22.2595V22.2722V22.2848V22.2973V22.3098V22.3222V22.3347V22.347V22.3595V22.3718V22.3842V22.3965V22.4088V22.421V22.4333V22.4454V22.4576V22.4696V22.4818V22.4938V22.5058V22.5178V22.5298V22.5418V22.5536V22.5654V22.5773V22.5891V22.6008V22.6126V22.6243V22.636V22.6475V22.6592V22.6707V22.6822V22.6938V22.7053V22.7166V22.728V22.7394V22.7507V22.7619V22.7731V22.7843V22.7955V22.8067V22.8178V22.8288V22.8398V22.8509V22.8618V22.8726V22.8835V22.8944V22.9051V22.9158V22.9266V22.9373V22.948V22.9586V22.9691V22.9795V22.9901V23.0005V23.0109V23.0211V23.0315V23.0418V23.052V23.0621V23.0723V23.0824V23.0925V23.1024V23.1123V23.1222V23.1322V23.1421V23.1518V23.1616V23.1712V23.181V23.1906V23.2V23.2096V23.219V23.2285V23.2379V23.2472V23.2565V23.2658V23.2749V23.284V23.2931V23.3022V23.3112V23.3202V23.3291V23.3379V23.3467V23.3555V23.3642V23.373V23.3814V23.3901V23.3986V23.407V23.4155V23.4238V23.4322V23.4405V23.4486V23.4568V23.465V23.473V23.481V23.489V23.4968V23.5046V23.5125V23.5202V23.5278V23.5355V23.543V23.5506V23.5581V23.5654V23.5728V23.5802V23.5874V23.5946V23.6018V23.6088V23.6158V23.6229V23.6298V23.6366V23.6434V23.6501V23.6568V23.6635V23.6701V23.6765V23.683V23.6894V23.6957V23.7021V23.7083V23.7144V23.7205V23.7266V23.7325V23.7384V23.7443V23.7501V23.7558V23.7616V23.7672V23.7728V23.7782V23.7837V23.7891V23.7944V23.7997V23.8048V23.8099V23.815V23.82V23.825V23.8298V23.8346V23.8394V23.844V23.8486V23.8533V23.8578V23.8621V23.8664V23.8707V23.875V23.8792V23.8832V23.8872V23.8912V23.895V23.8989V23.9027V23.9064V23.9101V23.9136V23.917V23.9205V23.9238V23.927V23.9302V23.9334V23.9365V23.9395V23.9424V23.9453V23.9482V23.9509V23.9534V23.956V23.9586V23.961V23.9634V23.9656V23.9678V23.9701V23.9722V23.9741V23.976V23.9779V23.9797V23.9814V23.983V23.9861V23.9888V23.9914V23.9934V23.9954V23.9974V23.9994C25.6 24.883 24.8837 25.6 24 25.6C23.1163 25.6 22.4 24.8837 22.4 24V23.9981V23.9962V23.9944V23.9925V23.9901V23.9875V23.9846V23.9814V23.9797V23.9779V23.976V23.9741V23.9722V23.9701V23.9678V23.9656V23.9634V23.961V23.9586V23.956V23.9534V23.9509V23.9482V23.9453V23.9424V23.9395V23.9365V23.9334V23.9302V23.927V23.9238V23.9205V23.917V23.9136V23.9101V23.9064V23.9027V23.8989V23.895V23.8912V23.8872V23.8832V23.8792V23.875V23.8707V23.8664V23.8621V23.8578V23.8533V23.8486V23.844V23.8394V23.8346V23.8298V23.825V23.82V23.815V23.8099V23.8048V23.7997V23.7944V23.7891V23.7837V23.7782V23.7728V23.7672V23.7616V23.7558V23.7501V23.7443V23.7384V23.7325V23.7266V23.7205V23.7144V23.7083V23.7021V23.6957V23.6894V23.683V23.6765V23.6701V23.6635V23.6568V23.6501V23.6434V23.6366V23.6298V23.6229V23.6158V23.6088V23.6018V23.5946V23.5874V23.5802V23.5728V23.5654V23.5581V23.5506V23.543V23.5355V23.5278V23.5202V23.5125V23.5046V23.4968V23.489V23.481V23.473V23.465V23.4568V23.4486V23.4405V23.4322V23.4238V23.4155V23.407V23.3986V23.3901V23.3814V23.373V23.3642V23.3555V23.3467V23.3379V23.3291V23.3202V23.3112V23.3022V23.2931V23.284V23.2749V23.2658V23.2565V23.2472V23.2379V23.2285V23.219V23.2096V23.2V23.1906V23.181V23.1712V23.1616V23.1518V23.1421V23.1322V23.1222V23.1123V23.1024V23.0925V23.0824V23.0723V23.0621V23.052V23.0418V23.0315V23.0211V23.0109V23.0005V22.9901V22.9795V22.9691V22.9586V22.948V22.9373V22.9266V22.9158V22.9051V22.8944V22.8835V22.8726V22.8618V22.8509V22.8398V22.8288V22.8178V22.8067V22.7955V22.7843V22.7731V22.7619V22.7507V22.7394V22.728V22.7166V22.7053V22.6938V22.6822V22.6707V22.6592V22.6475V22.636V22.6243V22.6126V22.6008V22.5891V22.5773V22.5654V22.5536V22.5418V22.5298V22.5178V22.5058V22.4938V22.4818V22.4696V22.4576V22.4454V22.4333V22.421V22.4088V22.3965V22.3842V22.3718V22.3595V22.347V22.3347V22.3222V22.3098V22.2973V22.2848V22.2722V22.2595V22.247V22.2344V22.2216V22.209V22.1963V22.1835V22.1707V22.1579V22.1451V22.1323V22.1194V22.1066V22.0936V22.0806V22.0677V22.0547V22.0416V22.0286V22.0155V22.0024V21.9893V21.9762V21.963V21.9498V21.9366V21.9234V21.9101V21.8968V21.8835V21.8702V21.857V21.8435V21.8302V21.8168V21.8034V21.7899V21.7765V21.763V21.7494V21.736V21.7224V21.709V21.6954V21.6818V21.6682V21.6546V21.6408V21.6272V21.6136V21.5998V21.5861V21.5723V21.5587V21.545V21.5312V21.5173V21.5035V21.4898V21.4758V21.4621V21.4482V21.4342V21.4203V21.4064V21.3925V21.3786V21.3646V21.3507V21.3368V21.3227V21.3088V21.2947V21.2808V21.2667V21.2526V21.2386V21.2245V21.2104V21.1963V21.1822V21.1682V21.1541V21.1398V21.1258V21.1115V21.0974V21.0832V21.0691V21.0549V21.0406V21.0266V21.0123V20.9981V20.9838V20.9696V20.9554V20.9411V20.9269V20.9126V20.8984V20.8842V20.8698V20.8555V20.8413V20.827V20.8126V20.7984V20.784V20.7698V20.7555V20.7411V20.7269V20.7125V20.6981V20.6838V20.6694V20.6552V20.6408V20.6266V20.6122V20.5978V20.5835V20.5691V20.5547V20.5405V20.5261V20.5117V20.4973V20.483V20.4686V20.4542V20.44V20.4256V20.4112V20.397V20.3826V20.3683V20.3539V20.3395V20.3253V20.3109V20.2966V20.2822V20.2678V20.2536V20.2394V20.225V20.2107V20.1963V20.1821V20.1678V20.1534V20.1392V20.125V20.1107V20.0963V20.0821V20.0678V20.0536V20.0394V20.0251V20.0109V19.9966V19.9826V19.9683V19.9541V19.9398V19.9258V19.9115V19.8974V19.8832V19.8691V19.8549V19.8408V19.8267V19.8126V19.7986V19.7845V19.7704V19.7563V19.7422V19.7282V19.7142V19.7002V19.6862V19.6722V19.6582V19.6442V19.6302V19.6163V19.6024V19.5885V19.5746V19.5606V19.5469V19.533V19.5192V19.5053V19.4915V19.4778V19.464V19.4501V19.4365V19.4227V19.409V19.3952V19.3816V19.3678V19.3542V19.3406V19.327V19.3134V19.2998V19.2862V19.2728V19.2592V19.2458V19.2322V19.2187V19.2053V19.1918V19.1786V19.1651V19.1517V19.1384V19.1251V19.1117V19.0984V19.0853V19.072V19.0587V19.0456V19.0325V19.0192V19.0061V18.993V18.98V18.9669V18.9539V18.9408V18.9278V18.9149V18.9019V18.8891V18.8762V18.8634V18.8504V18.8376V18.8248V18.8122V18.7994V18.7867V18.7741V18.7613V18.7488V18.7362V18.7235V18.711V18.6986V18.6861V18.6736V18.6611V18.6488V18.6363V18.624V18.6117V18.5994V18.5872V18.5749V18.5627V18.5506V18.5384V18.5264V18.5142C22.4 17.2851 21.345 16 20 16C19.1614 16 18.2358 16.4558 17.6 17.541V17.5453V17.5618V17.5782V17.5947V17.6114V17.6278V17.6445V17.6611V17.6779V17.6946V17.7112V17.728V17.7448V17.7616V17.7784V17.7952V17.8122V17.8291V17.8459V17.8629V17.8798V17.8968V17.9139V17.9309V17.948V17.9651V17.9821V17.9994V18.0165V18.0336V18.0507V18.068V18.0853V18.1024V18.1197V18.137V18.1542V18.1717V18.189V18.2064V18.2237V18.2411V18.2586V18.276V18.2934V18.3109V18.3283V18.3459V18.3634V18.381V18.3984V18.416V18.4336V18.4512V18.4688V18.4864V18.504V18.5218V18.5394V18.557V18.5747V18.5925V18.6101V18.6278V18.6456V18.6634V18.6811V18.6989V18.7166V18.7344V18.7523V18.7701V18.7878V18.8058V18.8235V18.8414V18.8594V18.8771V18.895V18.913V18.9309V18.9486V18.9666V18.9845V19.0024V19.0205V19.0384V19.0563V19.0742V19.0922V19.1101V19.1282V19.1461V19.164V19.1821V19.2V19.2181V19.236V19.2541V19.272V19.2899V19.308V19.3261V19.344V19.3621V19.38V19.3981V19.416V19.4341V19.4522V19.4701V19.4882V19.5061V19.5242V19.5422V19.5602V19.5782V19.5962V19.6142V19.6322V19.6502V19.6682V19.6862V19.7042V19.7222V19.7402V19.7582V19.7762V19.7942V19.8122V19.8301V19.848V19.8661V19.884V19.9019V19.9198V19.9378V19.9557V19.9736V19.9915V20.0094V20.0274V20.0453V20.0632V20.081V20.0989V20.1168V20.1346V20.1525V20.1702V20.1882V20.2059V20.2237V20.2414V20.2592V20.2771V20.2949V20.3125V20.3302V20.348V20.3658V20.3834V20.4011V20.4187V20.4365V20.4541V20.4717V20.4893V20.5069V20.5245V20.5421V20.5597V20.5771V20.5947V20.6122V20.6298V20.6472V20.6646V20.6821V20.6995V20.717V20.7342V20.7517V20.769V20.7864V20.8037V20.821V20.8382V20.8555V20.8728V20.8899V20.9072V20.9243V20.9414V20.9586V20.9757V20.9928V21.0099V21.027V21.044V21.061V21.0779V21.0949V21.1118V21.1288V21.1458V21.1626V21.1794V21.1962V21.213V21.2298V21.2466V21.2632V21.2798V21.2966V21.3133V21.3298V21.3464V21.363V21.3795V21.396V21.4125V21.429V21.4453V21.4618V21.4781V21.4944V21.5107V21.527V21.5432V21.5595V21.5757V21.5918V21.6078V21.624V21.64V21.656V21.672V21.688V21.704V21.7198V21.7357V21.7515V21.7674V21.783V21.7989V21.8146V21.8302V21.8458V21.8614V21.877V21.8925V21.908V21.9234V21.9389V21.9542V21.9696V21.9848V22.0002V22.0154V22.0306V22.0458V22.0608V22.0758V22.0909V22.1059V22.121V22.1358V22.1507V22.1654V22.1803V22.195V22.2098V22.2245V22.239V22.2538V22.2683V22.2827V22.2973V22.3117V22.3261V22.3403V22.3547V22.369V22.3832V22.3973V22.4114V22.4254V22.4395V22.4534V22.4674V22.4813V22.4952V22.509V22.5227V22.5365V22.5501V22.5637V22.5773V22.5909V22.6043V22.6178V22.631V22.6443V22.6576V22.6709V22.6842V22.6973V22.7102V22.7234V22.7363V22.7493V22.7621V22.7749V22.7877V22.8005V22.8131V22.8258V22.8382V22.8507V22.8632V22.8757V22.888V22.9003V22.9125V22.9248V22.937V22.949V22.961V22.973V22.985V22.9968V23.0085V23.0203V23.032V23.0437V23.0552V23.0667V23.0782V23.0896V23.101V23.1122V23.1235V23.1346V23.1458V23.1568V23.1678V23.1787V23.1896V23.2003V23.2112V23.2219V23.2325V23.243V23.2536V23.264V23.2744V23.2846V23.2949V23.3051V23.3154V23.3253V23.3354V23.3453V23.3552V23.365V23.3747V23.3845V23.3941V23.4035V23.4131V23.4226V23.4318V23.4411V23.4504V23.4595V23.4686V23.4776V23.4866V23.4955V23.5043V23.513V23.5218V23.5302V23.5389V23.5474V23.5557V23.564V23.5723V23.5805V23.5886V23.5966V23.6046V23.6125V23.6203V23.6282V23.6358V23.6435V23.651V23.6584V23.6659V23.6731V23.6805V23.6877V23.6947V23.7018V23.7086V23.7155V23.7224V23.7291V23.7357V23.7424V23.7488V23.7552V23.7616V23.7678V23.7741V23.7802V23.7862V23.7922V23.7981V23.8038V23.8096V23.8152V23.8208V23.8262V23.8317V23.837V23.8422V23.8474V23.8525V23.8574V23.8624V23.8672V23.872V23.8766V23.8813V23.8858V23.8901V23.8946V23.8987V23.9029V23.907V23.911V23.9149V23.9187V23.9226V23.9262V23.9298V23.9333V23.9366V23.94V23.9432V23.9464V23.9494V23.9525V23.9554V23.9581V23.9608V23.9634V23.9659V23.9685V23.9707V23.973V23.9752V23.9773V23.9794V23.9813V23.983V23.9848V23.9864V23.9894V23.992V23.9942V23.9962V23.9982V23.9998C17.6 24.8835 16.8837 25.6 16 25.6C15.1163 25.6 14.4 24.8837 14.4 24V23.9982V23.9962V23.9942V23.992V23.9894V23.9864V23.9848V23.983V23.9813V23.9794V23.9773V23.9752V23.973V23.9707V23.9685V23.9659V23.9634V23.9608V23.9581V23.9554V23.9525V23.9494V23.9464V23.9432V23.94V23.9366V23.9333V23.9298V23.9262V23.9226V23.9187V23.9149V23.911V23.907V23.9029V23.8987V23.8946V23.8901V23.8858V23.8813V23.8766V23.872V23.8672V23.8624V23.8574V23.8525V23.8474V23.8422V23.837V23.8317V23.8262V23.8208V23.8152V23.8096V23.8038V23.7981V23.7922V23.7862V23.7802V23.7741V23.7678V23.7616V23.7552V23.7488V23.7424V23.7357V23.7291V23.7224V23.7155V23.7086V23.7018V23.6947V23.6877V23.6805V23.6731V23.6659V23.6584V23.651V23.6435V23.6358V23.6282V23.6203V23.6125V23.6046V23.5966V23.5886V23.5805V23.5723V23.564V23.5557V23.5474V23.5389V23.5302V23.5218V23.513V23.5043V23.4955V23.4866V23.4776V23.4686V23.4595V23.4504V23.4411V23.4318V23.4226V23.4131V23.4035V23.3941V23.3845V23.3747V23.365V23.3552V23.3453V23.3354V23.3253V23.3154V23.3051V23.2949V23.2846V23.2744V23.264V23.2536V23.243V23.2325V23.2219V23.2112V23.2003V23.1896V23.1787V23.1678V23.1568V23.1458V23.1346V23.1235V23.1122V23.101V23.0896V23.0782V23.0667V23.0552V23.0437V23.032V23.0203V23.0085V22.9968V22.985V22.973V22.961V22.949V22.937V22.9248V22.9125V22.9003V22.888V22.8757V22.8632V22.8507V22.8382V22.8258V22.8131V22.8005V22.7877V22.7749V22.7621V22.7493V22.7363V22.7234V22.7102V22.6973V22.6842V22.6709V22.6576V22.6443V22.631V22.6178V22.6043V22.5909V22.5773V22.5637V22.5501V22.5365V22.5227V22.509V22.4952V22.4813V22.4674V22.4534V22.4395V22.4254V22.4114V22.3973V22.3832V22.369V22.3547V22.3403V22.3261V22.3117V22.2973V22.2827V22.2683V22.2538V22.239V22.2245V22.2098V22.195V22.1803V22.1654V22.1507V22.1358V22.121V22.1059V22.0909V22.0758V22.0608V22.0458V22.0306V22.0154V22.0002V21.9848V21.9696V21.9542V21.9389V21.9234V21.908V21.8925V21.877V21.8614V21.8458V21.8302V21.8146V21.7989V21.783V21.7674V21.7515V21.7357V21.7198V21.704V21.688V21.672V21.656V21.64V21.624V21.6078V21.5918V21.5757V21.5595V21.5432V21.527V21.5107V21.4944V21.4781V21.4618V21.4453V21.429V21.4125V21.396V21.3795V21.363V21.3464V21.3298V21.3133V21.2966V21.2798V21.2632V21.2466V21.2298V21.213V21.1962V21.1794V21.1626V21.1458V21.1288V21.1118V21.0949V21.0779V21.061V21.044V21.027V21.0099V20.9928V20.9757V20.9586V20.9414V20.9243V20.9072V20.8899V20.8728V20.8555V20.8382V20.821V20.8037V20.7864V20.769V20.7517V20.7342V20.717V20.6995V20.6821V20.6646V20.6472V20.6298V20.6122V20.5947V20.5771V20.5597V20.5421V20.5245V20.5069V20.4893V20.4717V20.4541V20.4365V20.4187V20.4011V20.3834V20.3658V20.348V20.3302V20.3125V20.2949V20.2771V20.2592V20.2414V20.2237V20.2059V20.1882V20.1702V20.1525V20.1346V20.1168V20.0989V20.081V20.0632V20.0453V20.0274V20.0094V19.9915V19.9736V19.9557V19.9378V19.9198V19.9019V19.884V19.8661V19.848V19.8301V19.8122V19.7942V19.7762V19.7582V19.7402V19.7222V19.7042V19.6862V19.6682V19.6502V19.6322V19.6142V19.5962V19.5782V19.5602V19.5422V19.5242V19.5061V19.4882V19.4701V19.4522V19.4341V19.416V19.3981V19.38V19.3621V19.344V19.3261V19.308V19.2899V19.272V19.2541V19.236V19.2181V19.2V19.1821V19.164V19.1461V19.1282V19.1101V19.0922V19.0742V19.0563V19.0384V19.0205V19.0024V18.9845V18.9666V18.9486V18.9309V18.913V18.895V18.8771V18.8594V18.8414V18.8235V18.8058V18.7878V18.7701V18.7523V18.7344V18.7166V18.6989V18.6811V18.6634V18.6456V18.6278V18.6101V18.5925V18.5747V18.557V18.5394V18.5218V18.504V18.4864V18.4688V18.4512V18.4336V18.416V18.3984V18.381V18.3634V18.3459V18.3283V18.3109V18.2934V18.276V18.2586V18.2411V18.2237V18.2064V18.189V18.1717V18.1542V18.137V18.1197V18.1024V18.0853V18.068V18.0507V18.0336V18.0165V17.9994V17.9821V17.9651V17.948V17.9309V17.9139V17.8968V17.8798V17.8629V17.8459V17.8291V17.8122V17.7952V17.7784V17.7616V17.7448V17.728V17.7112V17.6946V17.6779V17.6611V17.6445V17.6278V17.6114V17.5947V17.5782V17.5618V17.5453V17.5288V17.5123V17.4958V17.4795V17.4632V17.4469V17.4306V17.4144V17.3981V17.3819V17.3658V17.3496V17.3336V17.3174V17.3014V17.2854V17.2694V17.2534V17.2376V17.2218V17.2059V17.1901V17.1742V17.1586V17.1429V17.1366V17.1302V17.124V17.1176V17.1114V17.105V17.0986V17.0922V17.0858V17.0794V17.073V17.0666V17.0602V17.0538V17.0472V17.0408V17.0342V17.0277V17.0213V17.0147V17.0082V17.0016V16.995V16.9885V16.9819V16.9754V16.9688V16.9621V16.9555V16.9488V16.9422V16.9355V16.9288V16.9222V16.9155V16.9088V16.9021V16.8954V16.8886V16.8819V16.8752V16.8683V16.8616V16.8549V16.848V16.8413V16.8344V16.8277V16.8208V16.8139V16.8072V16.8003V16.7934V16.7866V16.7797V16.7728V16.7659V16.759V16.7522V16.7451V16.7382V16.7314V16.7245V16.7174V16.7106V16.7035V16.6966V16.6896V16.6826V16.6757V16.6686V16.6616V16.6547V16.6477V16.6406V16.6336V16.6266V16.6195V16.6125V16.6054V16.5984V16.5914V16.5843V16.5771V16.5701V16.563V16.556V16.5488V16.5418V16.5347V16.5275V16.5205V16.5133V16.5062V16.499V16.492V16.4848V16.4778V16.4706V16.4634V16.4563V16.4491V16.4419V16.4349V16.4277V16.4205V16.4133V16.4062V16.399V16.3918V16.3846V16.3774V16.3702V16.3632V16.356V16.3488V16.3416V16.3344V16.3272V16.32V16.3128V16.3056V16.2984V16.2912V16.284V16.2768V16.2696V16.2624V16.2552V16.248V16.2408V16.2336V16.2264V16.2192V16.212V16.2048V16.1976V16.1904V16.1832V16.176V16.1688V16.1614V16.1542V16.147V16.1398V16.1326V16.1254V16.1182V16.111V16.1038V16.0966V16.0896V16.0824V16.0752V16.068V16.0608V16.0536V16.0464V16.0392V16.032V16.0248V16.0178V16.0106V16.0034V15.9962V15.9891V15.9819V15.9747V15.9675V15.9605V15.9533V15.9461V15.939V15.9318V15.9248V15.9176V15.9106V15.9034V15.8963V15.8891V15.8821V15.875V15.8678V15.8608V15.8538V15.8466V15.8395V15.8325V15.8254V15.8184V15.8114V15.8043V15.7973V15.7902V15.7832V15.7762V15.7691V15.7621V15.7552V15.7482V15.7411V15.7341V15.7272V15.7202V15.7133V15.7062V15.6994V15.6923V15.6854V15.6786V15.6717V15.6646V15.6578V15.6509V15.644V15.6371V15.6302V15.6234V15.6165V15.6098V15.6029V15.596V15.5893V15.5824V15.5755V15.5688V15.5621V15.5552V15.5485V15.5418V15.535V15.5283V15.5214V15.5147V15.5082V15.5014V15.4947V15.488V15.4814V15.4747V15.468V15.4614V15.4549V15.4482V15.4416V15.435V15.4285V15.4219V15.4154V15.4088V15.4022V15.3957V15.3893V15.3827V15.3762V15.3698V15.3634V15.3568V15.3504V15.344V15.3376V15.3312V15.3248V15.3184V15.312V15.3058V15.2994V15.2931V15.2867V15.2805V15.2742V15.2678V15.2616V15.2554V15.2493V15.243V15.2368V15.2306V15.2245V15.2182V15.2122V15.2061V15.2V15.1939V15.1878V15.1818V15.1757V15.1696V15.1637V15.1576V15.1517V15.1458V15.1397V15.1338V15.1278V15.1219V15.1162V15.1102V15.1043V15.0986V15.0926V15.0869V15.0811V15.0754V15.0696V15.0638V15.0581V15.0525V15.0467V15.0411V15.0354V15.0298V15.0242V15.0186V15.013V15.0075V15.0019V14.9965V14.9909V14.9854V14.98V14.9746V14.9691V14.9637V14.9582V14.953V14.9475V14.9422V14.937V14.9317V14.9264V14.9211V14.9158V14.9107V14.9054V14.9003V14.8952V14.8901V14.885V14.8798V14.8747V14.8698V14.8646V14.8597V14.8547V14.8498V14.8448V14.8398V14.835V14.8301V14.8253V14.8205V14.8157V14.8109V14.8061V14.8013V14.7966V14.7918V14.7872V14.7826V14.7779V14.7733V14.7688V14.7642V14.7597V14.755V14.7506V14.7461V14.7418V14.7373V14.733V14.7285V14.7242V14.7198V14.7155V14.7112V14.707V14.7027V14.6986V14.6944V14.6902V14.6861V14.6821V14.6779V14.6739V14.6699V14.6659V14.6619V14.6579V14.6541V14.6501V14.6462V14.6424V14.6386V14.6347V14.631V14.6272V14.6235V14.6198V14.6162V14.6126V14.609V14.6054V14.6018V14.5982V14.5947V14.5914V14.5878V14.5845V14.5811V14.5778V14.5744V14.571V14.5678V14.5645V14.5613V14.5581V14.555V14.5518V14.5488V14.5456V14.5426V14.5397V14.5366V14.5336V14.5307V14.5278V14.525V14.5221V14.5194V14.5165V14.5138V14.511V14.5083V14.5058V14.503V14.5005V14.4979V14.4954V14.4928V14.4904V14.488V14.4856V14.4832V14.4808V14.4784V14.4762V14.4739V14.4717V14.4694V14.4674V14.4653V14.463V14.4611V14.459V14.457V14.455V14.4531V14.4512V14.4493V14.4475V14.4458V14.444V14.4422V14.4405V14.4389V14.4371V14.4355V14.4325V14.4296V14.4267V14.424V14.4214V14.419V14.4168V14.4146V14.4126V14.4107V14.4083V14.4067V14.4048V14.4032V14.4013C14.4 13.5176 15.1163 12.8 16 12.8Z" fill="#424244"/>
</svg>
