<svg width="34" height="34" viewBox="0 0 34 34" fill="none" xmlns="http://www.w3.org/2000/svg">
<g clip-path="url(#clip0_244_1152)">
<path d="M14.6061 16.9999L21.4596 16.9999M27.0563 18.4141L14.7631 24.9222C13.6611 25.5057 13.1101 25.7974 12.7468 25.7135C12.4317 25.6408 12.1715 25.4203 12.0479 25.1215C11.9054 24.7769 12.1023 24.1851 12.4966 23.0022L14.3287 17.506C14.3913 17.3182 14.4225 17.2243 14.435 17.1283C14.446 17.0431 14.4462 16.957 14.4352 16.8718C14.4227 16.7757 14.3913 16.6817 14.3287 16.494L12.4966 10.9978C12.1023 9.8148 11.905 9.22336 12.0475 8.87877C12.1711 8.57992 12.4317 8.35929 12.7468 8.28653C13.1101 8.20263 13.6611 8.49443 14.7632 9.07786L27.0564 15.586C27.9228 16.0447 28.3559 16.2739 28.4975 16.5799C28.6209 16.8464 28.621 17.1537 28.4977 17.4202C28.356 17.7262 27.9227 17.9554 27.0563 18.4141Z" stroke="#FF6700" stroke-width="2" stroke-linecap="round" stroke-linejoin="round"/>
</g>
<defs>
<clipPath id="clip0_244_1152">
<rect width="24" height="24" fill="white" transform="translate(17 0.029541) rotate(45)"/>
</clipPath>
</defs>
</svg>
