<svg width="24" height="27" viewBox="0 0 24 27" fill="none" xmlns="http://www.w3.org/2000/svg">
<path d="M2.78971 25.3761L3.2437 24.4851L2.78971 25.3761ZM1.62463 24.2108L0.733627 24.6648H0.733627L1.62463 24.2108ZM22.377 24.2108L21.4859 23.7568L22.377 24.2108ZM21.211 25.3761L20.757 24.4851L21.211 25.3761ZM21.211 4.62406L21.665 3.73306H21.665L21.211 4.62406ZM22.377 5.78947L21.4859 6.24346L22.377 5.78947ZM2.78971 4.62406L3.2437 5.51507L2.78971 4.62406ZM1.62463 5.78947L2.51564 6.24346L1.62463 5.78947ZM17.334 20.3334V19.3334C16.7817 19.3334 16.334 19.7811 16.334 20.3334H17.334ZM17.3366 20.3334L18.3364 20.3568C18.3427 20.0876 18.2401 19.8272 18.052 19.6346C17.8638 19.442 17.6059 19.3334 17.3366 19.3334V20.3334ZM17.3366 20.3361L17.3127 21.3358C17.5779 21.3421 17.8348 21.2428 18.0268 21.0597C18.2188 20.8766 18.3301 20.6247 18.3363 20.3594L17.3366 20.3361ZM17.334 20.336H16.334C16.334 20.879 16.7673 21.3227 17.3101 21.3357L17.334 20.336ZM12.0007 20.3334V19.3334C11.4484 19.3334 11.0007 19.7811 11.0007 20.3334H12.0007ZM12.0033 20.3334L13.003 20.3568C13.0093 20.0876 12.9068 19.8272 12.7186 19.6346C12.5305 19.442 12.2726 19.3334 12.0033 19.3334V20.3334ZM12.0033 20.3361L11.9793 21.3358C12.2446 21.3421 12.5015 21.2428 12.6934 21.0597C12.8854 20.8766 12.9968 20.6247 13.003 20.3594L12.0033 20.3361ZM12.0007 20.336H11.0007C11.0007 20.879 11.4339 21.3227 11.9767 21.3357L12.0007 20.336ZM6.66732 20.3334V19.3334C6.11503 19.3334 5.66732 19.7811 5.66732 20.3334H6.66732ZM6.66998 20.3334L7.66971 20.3568C7.676 20.0876 7.57347 19.8272 7.3853 19.6346C7.19714 19.442 6.93925 19.3334 6.66998 19.3334V20.3334ZM6.66992 20.3361L6.646 21.3358C6.91124 21.3421 7.16813 21.2428 7.36012 21.0597C7.5521 20.8766 7.66345 20.6247 7.66965 20.3594L6.66992 20.3361ZM6.66732 20.336H5.66732C5.66732 20.879 6.10059 21.3227 6.6434 21.3357L6.66732 20.336ZM17.3366 15.0001H18.3366C18.3366 14.4478 17.8889 14.0001 17.3366 14.0001V15.0001ZM17.3366 15.0027L17.3127 16.0025C17.582 16.0089 17.8425 15.9064 18.0352 15.7183C18.2279 15.5301 18.3366 15.2721 18.3366 15.0027H17.3366ZM17.334 15.0027H16.334C16.334 15.5457 16.7673 15.9894 17.3101 16.0024L17.334 15.0027ZM17.334 15.0001V14.0001C16.7817 14.0001 16.334 14.4478 16.334 15.0001H17.334ZM12.0007 15.0001V14.0001C11.4484 14.0001 11.0007 14.4478 11.0007 15.0001H12.0007ZM12.0033 15.0001L13.003 15.0234C13.0093 14.7542 12.9068 14.4939 12.7186 14.3013C12.5305 14.1087 12.2726 14.0001 12.0033 14.0001V15.0001ZM12.0033 15.0027L11.9793 16.0025C12.2446 16.0088 12.5015 15.9095 12.6934 15.7264C12.8854 15.5433 12.9968 15.2913 13.003 15.0261L12.0033 15.0027ZM12.0007 15.0027H11.0007C11.0007 15.5457 11.4339 15.9894 11.9767 16.0024L12.0007 15.0027ZM6.66732 15.0001V14.0001C6.11503 14.0001 5.66732 14.4478 5.66732 15.0001H6.66732ZM6.66998 15.0001L7.66971 15.0234C7.676 14.7542 7.57347 14.4939 7.3853 14.3013C7.19714 14.1087 6.93925 14.0001 6.66998 14.0001V15.0001ZM6.66992 15.0027L6.646 16.0025C6.91124 16.0088 7.16813 15.9095 7.36012 15.7264C7.5521 15.5433 7.66345 15.2913 7.66965 15.0261L6.66992 15.0027ZM6.66732 15.0027H5.66732C5.66732 15.5457 6.10059 15.9894 6.6434 16.0024L6.66732 15.0027ZM1.33398 8.66675C0.7817 8.66675 0.333984 9.11446 0.333984 9.66675C0.333984 10.219 0.7817 10.6667 1.33398 10.6667V8.66675ZM22.6673 10.6667C23.2196 10.6667 23.6673 10.219 23.6673 9.66675C23.6673 9.11446 23.2196 8.66675 22.6673 8.66675V10.6667ZM18.334 1.66675C18.334 1.11446 17.8863 0.666748 17.334 0.666748C16.7817 0.666748 16.334 1.11446 16.334 1.66675H18.334ZM16.334 4.33341C16.334 4.8857 16.7817 5.33341 17.334 5.33341C17.8863 5.33341 18.334 4.8857 18.334 4.33341H16.334ZM7.66732 1.66675C7.66732 1.11446 7.2196 0.666748 6.66732 0.666748C6.11503 0.666748 5.66732 1.11446 5.66732 1.66675H7.66732ZM5.66732 4.33341C5.66732 4.8857 6.11503 5.33341 6.66732 5.33341C7.2196 5.33341 7.66732 4.8857 7.66732 4.33341H5.66732ZM5.60091 5.33341H18.4009V3.33341H5.60091V5.33341ZM21.6673 8.60002V21.4H23.6673V8.60002H21.6673ZM18.4009 24.6667H5.60091V26.6667H18.4009V24.6667ZM2.33398 21.4V8.60002H0.333984V21.4H2.33398ZM5.60091 24.6667C4.8377 24.6667 4.32525 24.666 3.9306 24.6337C3.54756 24.6024 3.36441 24.5466 3.2437 24.4851L2.33572 26.2671C2.78545 26.4962 3.26116 26.5857 3.76774 26.6271C4.26271 26.6675 4.87065 26.6667 5.60091 26.6667V24.6667ZM0.333984 21.4C0.333984 22.1303 0.333207 22.7381 0.373636 23.233C0.415018 23.7395 0.504495 24.2151 0.733627 24.6648L2.51564 23.7568C2.45412 23.6361 2.39828 23.453 2.36699 23.0701C2.33476 22.6756 2.33398 22.1633 2.33398 21.4H0.333984ZM3.2437 24.4851C2.93025 24.3253 2.67551 24.0706 2.51564 23.7568L0.733627 24.6648C1.08509 25.3546 1.64564 25.9155 2.33572 26.2671L3.2437 24.4851ZM21.6673 21.4C21.6673 22.1634 21.6666 22.6757 21.6344 23.0703C21.6032 23.4532 21.5474 23.6362 21.4859 23.7568L23.268 24.6648C23.4971 24.215 23.5865 23.7393 23.6278 23.2328C23.6682 22.738 23.6673 22.1302 23.6673 21.4H21.6673ZM18.4009 26.6667C19.1312 26.6667 19.7389 26.6675 20.2336 26.6271C20.7401 26.5857 21.2154 26.4962 21.665 26.2671L20.757 24.4851C20.6362 24.5466 20.4532 24.6024 20.0706 24.6337C19.6763 24.666 19.1641 24.6667 18.4009 24.6667V26.6667ZM21.4859 23.7568C21.3264 24.0699 21.0712 24.325 20.757 24.4851L21.665 26.2671C22.3544 25.9158 22.9162 25.3552 23.268 24.6648L21.4859 23.7568ZM18.4009 5.33341C19.1642 5.33341 19.6763 5.33419 20.0707 5.36642C20.4533 5.39769 20.6362 5.45352 20.757 5.51507L21.665 3.73306C21.2154 3.50396 20.74 3.41446 20.2336 3.37307C19.7388 3.33264 19.1311 3.33341 18.4009 3.33341V5.33341ZM23.6673 8.60002C23.6673 7.86988 23.6682 7.26208 23.6278 6.76732C23.5865 6.26088 23.4971 5.78527 23.268 5.33548L21.4859 6.24346C21.5474 6.3641 21.6032 6.54703 21.6344 6.92988C21.6666 7.32442 21.6673 7.83668 21.6673 8.60002H23.6673ZM20.757 5.51507C21.0711 5.67507 21.3264 5.93027 21.4859 6.24346L23.268 5.33548C22.9162 4.64514 22.3545 4.08438 21.665 3.73306L20.757 5.51507ZM5.60091 3.33341C4.87067 3.33341 4.26273 3.33264 3.76776 3.37306C3.26119 3.41444 2.78547 3.5039 2.33572 3.73306L3.2437 5.51507C3.36439 5.45358 3.54753 5.39771 3.93058 5.36643C4.32524 5.33419 4.83768 5.33341 5.60091 5.33341V3.33341ZM2.33398 8.60002C2.33398 7.83678 2.33476 7.32452 2.36699 6.93004C2.39827 6.54724 2.45411 6.36422 2.51564 6.24346L0.733627 5.33548C0.504507 5.78515 0.415022 6.26066 0.373637 6.76717C0.333207 7.26198 0.333984 7.86978 0.333984 8.60002H2.33398ZM2.33572 3.73306C1.64554 4.08473 1.08503 4.64581 0.733627 5.33548L2.51564 6.24346C2.67556 5.9296 2.93036 5.67473 3.2437 5.51507L2.33572 3.73306ZM17.334 21.3334H17.3366V19.3334H17.334V21.3334ZM16.3369 20.3101L16.3369 20.3127L18.3363 20.3594L18.3364 20.3568L16.3369 20.3101ZM17.3605 19.3364L17.3579 19.3363L17.3101 21.3357L17.3127 21.3358L17.3605 19.3364ZM18.334 20.336V20.3334H16.334V20.336H18.334ZM12.0007 21.3334H12.0033V19.3334H12.0007V21.3334ZM11.0036 20.3101L11.0035 20.3127L13.003 20.3594L13.003 20.3568L11.0036 20.3101ZM12.0272 19.3364L12.0246 19.3363L11.9767 21.3357L11.9793 21.3358L12.0272 19.3364ZM13.0007 20.336V20.3334H11.0007V20.336H13.0007ZM6.66732 21.3334H6.66998V19.3334H6.66732V21.3334ZM5.67026 20.3101L5.67019 20.3127L7.66965 20.3594L7.66971 20.3568L5.67026 20.3101ZM6.69384 19.3364L6.69124 19.3363L6.6434 21.3357L6.646 21.3358L6.69384 19.3364ZM7.66732 20.336V20.3334H5.66732V20.336H7.66732ZM16.3366 15.0001V15.0027H18.3366V15.0001H16.3366ZM17.3605 14.003L17.3579 14.003L17.3101 16.0024L17.3127 16.0025L17.3605 14.003ZM18.334 15.0027V15.0001H16.334V15.0027H18.334ZM17.334 16.0001H17.3366V14.0001H17.334V16.0001ZM12.0007 16.0001H12.0033V14.0001H12.0007V16.0001ZM11.0036 14.9767L11.0035 14.9794L13.003 15.0261L13.003 15.0234L11.0036 14.9767ZM12.0272 14.003L12.0246 14.003L11.9767 16.0024L11.9793 16.0025L12.0272 14.003ZM13.0007 15.0027V15.0001H11.0007V15.0027H13.0007ZM6.66732 16.0001H6.66998V14.0001H6.66732V16.0001ZM5.67026 14.9767L5.67019 14.9794L7.66965 15.0261L7.66971 15.0234L5.67026 14.9767ZM6.69384 14.003L6.69124 14.003L6.6434 16.0024L6.646 16.0025L6.69384 14.003ZM7.66732 15.0027V15.0001H5.66732V15.0027H7.66732ZM1.33398 10.6667H22.6673V8.66675H1.33398V10.6667ZM16.334 1.66675V4.33341H18.334V1.66675H16.334ZM5.66732 1.66675V4.33341H7.66732V1.66675H5.66732Z" fill="#424244"/>
</svg>
