<svg width="33" height="32" viewBox="0 0 33 32" fill="none" xmlns="http://www.w3.org/2000/svg">
<path d="M4.79065 8.12274L5.68166 8.57673L4.79065 8.12274ZM5.95573 6.95734L6.40972 7.84834L5.95573 6.95734ZM5.95573 25.0427L6.40972 24.1517L5.95573 25.0427ZM4.79065 23.8774L3.89964 24.3314L4.79065 23.8774ZM28.2096 23.8774L27.3186 23.4234L28.2096 23.8774ZM27.0437 25.0427L26.5897 24.1517L27.0437 25.0427ZM28.2096 8.12274L27.3186 8.57673V8.57673L28.2096 8.12274ZM27.0437 6.95734L27.4977 6.06633L27.0437 6.95734ZM9.83333 19C9.28105 19 8.83333 19.4477 8.83333 20C8.83333 20.5523 9.28105 21 9.83333 21V19ZM15.1667 21C15.719 21 16.1667 20.5523 16.1667 20C16.1667 19.4477 15.719 19 15.1667 19V21ZM4.5 13.6667C3.94772 13.6667 3.5 14.1144 3.5 14.6667C3.5 15.219 3.94772 15.6667 4.5 15.6667V13.6667ZM28.5 15.6667C29.0523 15.6667 29.5 15.219 29.5 14.6667C29.5 14.1144 29.0523 13.6667 28.5 13.6667V15.6667ZM4.5 11C3.94772 11 3.5 11.4477 3.5 12C3.5 12.5523 3.94772 13 4.5 13V11ZM28.5 13C29.0523 13 29.5 12.5523 29.5 12C29.5 11.4477 29.0523 11 28.5 11V13ZM27.5 10.9333V21.0666H29.5V10.9333H27.5ZM24.2336 24.3334H8.76693V26.3334H24.2336V24.3334ZM5.5 21.0666V10.9333H3.5V21.0666H5.5ZM8.76693 7.66669H24.2336V5.66669H8.76693V7.66669ZM5.5 10.9333C5.5 10.17 5.50078 9.65779 5.53301 9.26331C5.56429 8.88052 5.62013 8.69749 5.68166 8.57673L3.89964 7.66875C3.67052 8.11842 3.58104 8.59393 3.53965 9.10044C3.49922 9.59526 3.5 10.2031 3.5 10.9333H5.5ZM8.76693 5.66669C8.03668 5.66669 7.42874 5.66591 6.93378 5.70634C6.42721 5.74771 5.95148 5.83717 5.50174 6.06633L6.40972 7.84834C6.53041 7.78685 6.71354 7.73099 7.09659 7.6997C7.49126 7.66746 8.0037 7.66669 8.76693 7.66669V5.66669ZM5.68166 8.57673C5.84158 8.26287 6.09637 8.008 6.40972 7.84834L5.50174 6.06633C4.81155 6.418 4.25105 6.97908 3.89964 7.66875L5.68166 8.57673ZM8.76693 24.3334C8.00371 24.3334 7.49127 24.3326 7.09662 24.3003C6.71357 24.269 6.53042 24.2132 6.40972 24.1517L5.50174 25.9337C5.95147 26.1628 6.42718 26.2523 6.93376 26.2937C7.42873 26.3341 8.03667 26.3334 8.76693 26.3334V24.3334ZM3.5 21.0666C3.5 21.7969 3.49922 22.4047 3.53965 22.8996C3.58103 23.4061 3.67051 23.8817 3.89964 24.3314L5.68166 23.4234C5.62014 23.3027 5.56429 23.1196 5.53301 22.7367C5.50078 22.3422 5.5 21.8299 5.5 21.0666H3.5ZM6.40972 24.1517C6.09627 23.9919 5.84152 23.7372 5.68166 23.4234L3.89964 24.3314C4.2511 25.0212 4.81166 25.5821 5.50174 25.9337L6.40972 24.1517ZM27.5 21.0666C27.5 21.83 27.4993 22.3423 27.4671 22.7369C27.4359 23.1198 27.3801 23.3028 27.3186 23.4234L29.1006 24.3314C29.3298 23.8816 29.4192 23.4059 29.4605 22.8994C29.5008 22.4046 29.5 21.7968 29.5 21.0666H27.5ZM24.2336 26.3334C24.9638 26.3334 25.5715 26.3341 26.0663 26.2937C26.5727 26.2523 27.0481 26.1628 27.4977 25.9337L26.5897 24.1517C26.4689 24.2132 26.2859 24.269 25.9033 24.3003C25.509 24.3326 24.9968 24.3334 24.2336 24.3334V26.3334ZM27.3186 23.4234C27.1591 23.7365 26.9038 23.9916 26.5897 24.1517L27.4977 25.9337C28.1871 25.5824 28.7488 25.0218 29.1006 24.3314L27.3186 23.4234ZM29.5 10.9333C29.5 10.2032 29.5008 9.59535 29.4605 9.1006C29.4192 8.59415 29.3298 8.11854 29.1006 7.66875L27.3186 8.57673C27.3801 8.69738 27.4359 8.8803 27.4671 9.26315C27.4993 9.6577 27.5 10.1699 27.5 10.9333H29.5ZM24.2336 7.66669C24.9968 7.66669 25.509 7.66747 25.9033 7.6997C26.286 7.73097 26.4689 7.78679 26.5897 7.84834L27.4977 6.06633C27.0481 5.83723 26.5727 5.74773 26.0663 5.70634C25.5715 5.66591 24.9638 5.66669 24.2336 5.66669V7.66669ZM29.1006 7.66875C28.7489 6.97842 28.1872 6.41766 27.4977 6.06633L26.5897 7.84834C26.9037 8.00834 27.159 8.26354 27.3186 8.57673L29.1006 7.66875ZM9.83333 21H15.1667V19H9.83333V21ZM4.5 15.6667H28.5V13.6667H4.5V15.6667ZM4.5 13H28.5V11H4.5V13Z" fill="#424244"/>
</svg>
