<svg width="33" height="32" viewBox="0 0 33 32" fill="none" xmlns="http://www.w3.org/2000/svg">
<path d="M21.8334 10.6666C21.8334 7.72113 19.4456 5.33331 16.5001 5.33331C13.5546 5.33331 11.1668 7.72113 11.1668 10.6666M26.4272 14.2319L27.6716 21.6986C27.9565 23.4078 28.0993 24.2624 27.8519 24.9285C27.6348 25.513 27.2201 26.0029 26.6792 26.3131C26.0629 26.6667 25.1961 26.6666 23.4633 26.6666H9.53656C7.80373 26.6666 6.93803 26.6667 6.32172 26.3131C5.78087 26.0029 5.36519 25.513 5.1481 24.9285C4.90071 24.2624 5.04335 23.4078 5.32823 21.6986L6.57267 14.2319C6.78378 12.9653 6.88968 12.332 7.20572 11.8568C7.4843 11.4378 7.87571 11.1062 8.33474 10.9003C8.85548 10.6666 9.49726 10.6666 10.7814 10.6666H22.2192C23.5033 10.6666 24.145 10.6666 24.6657 10.9003C25.1248 11.1062 25.5158 11.4378 25.7944 11.8568C26.1104 12.332 26.2161 12.9653 26.4272 14.2319Z" stroke="#424244" stroke-width="2" stroke-linecap="round" stroke-linejoin="round"/>
</svg>
